<?xml version="1.0" standalone="no"?>
<!DOCTYPE svg PUBLIC "-//W3C//DTD SVG 1.1//EN" "http://www.w3.org/Graphics/SVG/1.1/DTD/svg11.dtd" >
<!--
2013-9-30: Created.
-->
<svg>
<metadata>
Created by iconfont
</metadata>
<defs>

<font id="iconfont" horiz-adv-x="1024" >
  <font-face
    font-family="iconfont"
    font-weight="500"
    font-stretch="normal"
    units-per-em="1024"
    ascent="896"
    descent="-128"
  />
    <missing-glyph />
    
    <glyph glyph-name="clock" unicode="&#59762;" d="M512-128C230.4-128 0 102.4 0 384S230.4 896 512 896s512-230.4 512-512S793.6-128 512-128zM512 810.666667C277.333333 810.666667 85.333333 618.666667 85.333333 384s192-426.666667 426.666667-426.666667 426.666667 192 426.666667 426.666667S746.666667 810.666667 512 810.666667zM512 341.333333c-25.6 0-42.666667 17.066667-42.666667 42.666667L469.333333 682.666667c0 25.6 17.066667 42.666667 42.666667 42.666667s42.666667-17.066667 42.666667-42.666667l0-298.666667C554.666667 358.4 537.6 341.333333 512 341.333333zM682.666667 170.666667c-12.8 0-21.333333 4.266667-29.866667 12.8l-170.666667 170.666667c-17.066667 17.066667-17.066667 42.666667 0 59.733333s42.666667 17.066667 59.733333 0l170.666667-170.666667c17.066667-17.066667 17.066667-42.666667 0-59.733333C704 174.933333 695.466667 170.666667 682.666667 170.666667z"  horiz-adv-x="1024" />

    
    <glyph glyph-name="clock1" unicode="&#58920;" d="M512 853.333333q95.658667 0 182.485333-37.162667t149.674667-100.010667 100.010667-149.674667 37.162667-182.485333-37.162667-182.485333-100.010667-149.674667-149.674667-100.010667-182.485333-37.162667-182.485333 37.162667-149.674667 100.010667-100.010667 149.674667-37.162667 182.485333 37.162667 182.485333 100.010667 149.674667 149.674667 100.010667 182.485333 37.162667zM512 768q-77.994667 0-149.162667-30.506667t-122.496-81.834667-81.834667-122.496-30.506667-149.162667 30.506667-149.162667 81.834667-122.496 122.496-81.834667 149.162667-30.506667 149.162667 30.506667 122.496 81.834667 81.834667 122.496 30.506667 149.162667-30.506667 149.162667-81.834667 122.496-122.496 81.834667-149.162667 30.506667zM512 682.666667q17.664 0 30.165333-12.501333t12.501333-30.165333l0-238.336 115.669333-115.328q12.330667-12.330667 12.330667-30.336t-12.330667-30.336-30.336-12.330667-30.336 12.330667l-128 128q-12.330667 12.330667-12.330667 30.336l0 256q0 17.664 12.501333 30.165333t30.165333 12.501333z"  horiz-adv-x="1024" />

    
    <glyph glyph-name="CLOCK" unicode="&#59138;" d="M497.11104 53.53472c180.67456 0 327.68 147.00544 327.68 327.68s-147.00544 327.68-327.68 327.68-327.68-147.00544-327.68-327.68 147.00544-327.68 327.68-327.68z m0 614.4c158.1056 0 286.72-128.6144 286.72-286.72s-128.6144-286.72-286.72-286.72-286.72 128.6144-286.72 286.72 128.63488 286.72 286.72 286.72zM608.8704 240.49664a20.41856 20.41856 0 0 1 28.95872 0 20.45952 20.45952 0 0 1 0 28.95872l-120.23808 120.23808V610.79552a20.48 20.48 0 1 1-40.96 0v-229.5808c0-5.4272 2.1504-10.6496 6.00064-14.47936l126.23872-126.23872z"  horiz-adv-x="1024" />

    
    <glyph glyph-name="Clock" unicode="&#60070;" d="M0 896h1024v-1024H0zM544 640a32 32 0 1 1-64 0h64z m-32-288h-32a32 32 0 0 1 11.52-24.576L512 352z m171.52-184.576a32 32 0 1 1 40.96 49.152l-40.96-49.152zM896 384c0-212.064-171.936-384-384-384v-64c247.424 0 448 200.576 448 448h-64zM512 0C299.936 0 128 171.936 128 384H64c0-247.424 200.576-448 448-448v64zM128 384C128 596.064 299.936 768 512 768V832C264.576 832 64 631.424 64 384h64zM512 768c212.064 0 384-171.936 384-384h64c0 247.424-200.576 448-448 448v-64z m-32-128v-288h64V640h-64z m11.52-312.576l192-160 40.96 49.152-192 160-40.96-49.152z"  horiz-adv-x="1024" />

    
    <glyph glyph-name="time" unicode="&#58992;" d="M512.855 804.481c-232.507 0-421.632-189.126-421.632-421.527 0-232.436 189.126-421.492 421.632-421.492 232.472 0 421.597 189.055 421.597 421.492 0 232.403-189.125 421.527-421.597 421.527zM512.855 38.965c-189.752 0-344.094 154.308-344.094 343.988 0 189.683 154.343 343.99 344.094 343.99 189.682 0 344.025-154.308 344.025-343.99 0-189.682-154.343-343.988-344.025-343.988zM712.843 278.538l-161.236 104.625 0 211.582c0 21.411-17.303 38.786-38.751 38.786s-38.785-17.375-38.785-38.786l0-253.674 196.506-127.569c6.58-4.248 13.891-6.267 21.098-6.267 12.71 0 25.174 6.199 32.555 17.652 11.699 18.001 6.545 41.989-11.386 53.652z"  horiz-adv-x="1024" />

    
    <glyph glyph-name="time1" unicode="&#58919;" d="M512.855 804.481c-232.507 0-421.632-189.126-421.632-421.527 0-232.436 189.126-421.492 421.632-421.492 232.472 0 421.597 189.055 421.597 421.492 0 232.403-189.125 421.527-421.597 421.527zM512.855 38.965c-189.752 0-344.094 154.308-344.094 343.988 0 189.683 154.343 343.99 344.094 343.99 189.682 0 344.025-154.308 344.025-343.99 0-189.682-154.343-343.988-344.025-343.988zM712.843 278.538l-161.236 104.625 0 211.582c0 21.411-17.303 38.786-38.751 38.786s-38.785-17.375-38.785-38.786l0-253.674 196.506-127.569c6.58-4.248 13.891-6.267 21.098-6.267 12.71 0 25.174 6.199 32.555 17.652 11.699 18.001 6.545 41.989-11.386 53.652z"  horiz-adv-x="1024" />

    
    <glyph glyph-name="zhanghao" unicode="&#58887;" d="M723.4304 387.39968c-54.12352-47.74912-125.9776-77.056-205.16352-77.056-80.36352 0-153.40032 30.2592-207.76448 79.42144-126.45376-33.09056-204.69248-146.0736-204.69248-281.04192v-68.78208c0-160.96768 812.3904-160.96768 812.3904 0v68.78208c-0.00512 131.41504-74.21952 242.5088-194.76992 278.67648z m-205.16352-28.12928c140.16512 0 254.09536 109.44 254.09536 244.63872S658.66752 848.78336 518.26688 848.78336c-139.9296 0-253.85472-109.67552-253.85472-244.87424 0-135.20384 113.92512-244.63872 253.85472-244.63872z m0 0"  horiz-adv-x="1024" />

    
    <glyph glyph-name="account" unicode="&#58965;" d="M723.43 387.4c-54.123-47.75-125.977-77.056-205.163-77.056-80.364 0-153.4 30.259-207.765 79.421C184.05 356.675 105.81 243.692 105.81 108.723v-68.782c0-160.968 812.39-160.968 812.39 0v68.782c-0.005 131.415-74.22 242.509-194.77 278.677z m-205.163-28.13c140.165 0 254.095 109.44 254.095 244.64S658.668 848.782 518.267 848.782c-139.93 0-253.855-109.675-253.855-244.874 0-135.204 113.925-244.639 253.855-244.639z m0 0"  horiz-adv-x="1024" />

    
    <glyph glyph-name="chat_bubble_fill" unicode="&#59617;" d="M39.68 428.617143C39.68 647.497143 251.117714 824.96 512 824.96c260.845714 0 472.32-177.444571 472.32-396.306286 0-218.898286-211.474286-396.361143-472.32-396.361143-28.324571 0-56.009143 2.102857-82.962286 6.089143l-0.164571 0.036572c-63.798857 15.213714-90.806857-55.734857-236.196572-92.525715-29.860571-7.570286-33.462857-0.036571-10.587428 24.228572 41.398857 43.812571 81.298286 115.236571 39.826286 145.773714-1.28 0.731429-17.261714 11.776-23.350858 16.237714-97.462857 72.594286-158.884571 178.596571-158.884571 296.521143z"  horiz-adv-x="1024" />

    
    <glyph glyph-name="chat_bubble__fill" unicode="&#59384;" d="M418.486857 139.849143a393.325714 393.325714 0 0 1 55.661714-3.931429c191.177143 0 346.148571 137.417143 346.148572 306.907429 0 84.589714-38.582857 161.188571-101.046857 216.704 133.558857-40.265143 229.065143-147.492571 229.065143-273.408 0-86.418286-45.019429-164.096-116.443429-217.307429-4.461714-3.291429-16.201143-11.355429-17.115429-11.904-30.409143-22.381714-1.170286-74.733714 29.184-106.843428 16.749714-17.773714 14.116571-23.296-7.771428-17.737143-106.532571 26.953143-126.354286 78.939429-173.092572 67.803428l-0.128-0.036571c-19.748571-2.925714-40.045714-4.461714-60.8-4.461714-67.474286 0-130.413714 16.201143-183.661714 44.214857zM73.142857 459.264C73.142857 619.666286 228.096 749.714286 419.291429 749.714286c191.177143 0 346.148571-130.048 346.148571-290.450286 0-160.420571-154.971429-290.486857-346.148571-290.486857-20.754286 0-41.051429 1.536-60.8 4.461714l-0.109715 0.036572c-46.756571 11.154286-66.56-40.850286-173.110857-67.803429-21.888-5.558857-24.502857-0.036571-7.753143 17.737143 30.354286 32.109714 59.574857 84.461714 29.184 106.843428-0.914286 0.548571-12.653714 8.630857-17.115428 11.885715C118.162286 295.149714 73.142857 372.845714 73.142857 459.264z"  horiz-adv-x="1024" />

    
    <glyph glyph-name="chat_bubble__fill1" unicode="&#59616;" d="M418.486857 139.849143a393.325714 393.325714 0 0 1 55.661714-3.931429c191.177143 0 346.148571 137.417143 346.148572 306.907429 0 84.589714-38.582857 161.188571-101.046857 216.704 133.558857-40.265143 229.065143-147.492571 229.065143-273.408 0-86.418286-45.019429-164.096-116.443429-217.307429-4.461714-3.291429-16.201143-11.355429-17.115429-11.904-30.409143-22.381714-1.170286-74.733714 29.184-106.843428 16.749714-17.773714 14.116571-23.296-7.771428-17.737143-106.532571 26.953143-126.354286 78.939429-173.092572 67.803428l-0.128-0.036571c-19.748571-2.925714-40.045714-4.461714-60.8-4.461714-67.474286 0-130.413714 16.201143-183.661714 44.214857zM73.142857 459.264C73.142857 619.666286 228.096 749.714286 419.291429 749.714286c191.177143 0 346.148571-130.048 346.148571-290.450286 0-160.420571-154.971429-290.486857-346.148571-290.486857-20.754286 0-41.051429 1.536-60.8 4.461714l-0.109715 0.036572c-46.756571 11.154286-66.56-40.850286-173.110857-67.803429-21.888-5.558857-24.502857-0.036571-7.753143 17.737143 30.354286 32.109714 59.574857 84.461714 29.184 106.843428-0.914286 0.548571-12.653714 8.630857-17.115428 11.885715C118.162286 295.149714 73.142857 372.845714 73.142857 459.264z"  horiz-adv-x="1024" />

    
    <glyph glyph-name="LC_icon_chat_fill" unicode="&#58939;" d="M413.75 674.612c-228.517 0-413.75-142.457-413.75-318.269 0-86.187 44.621-164.545 117.059-221.834-4.201-58.434-18.269-129.918-59.007-168.428 81.095 0 163.972 50.796 216.36 90.516 43.539-11.967 90.389-18.523 139.338-18.523 228.517 0 413.75 142.394 413.75 318.269 0 175.812-185.233 318.269-413.75 318.269zM963.72 325.343c34.819 46.531 54.742 100.637 54.742 158.307 0 175.812-185.233 318.269-413.75 318.269-100.573 0-192.744-27.626-264.418-73.457 33.737 6.365 69.001 9.803 105.284 9.803 246.086 0 445.577-156.78 445.577-350.096 0-76.194-30.872-146.786-83.514-204.138 52.26-39.72 135.264-90.643 216.36-90.643-57.67 54.742-61.808 176.067-60.28 231.955z"  horiz-adv-x="1024" />

    
    <glyph glyph-name="grid_" unicode="&#58974;" d="M416 336H96a48 48 0 0 1-48-48v-320a48 48 0 0 1 48-48h320a48 48 0 0 1 48 48V288a48 48 0 0 1-48 48z m0 512H96a48 48 0 0 1-48-48v-320a48 48 0 0 1 48-48h320a48 48 0 0 1 48 48V800a48 48 0 0 1-48 48z m512 0H608a48 48 0 0 1-48-48v-320a48 48 0 0 1 48-48h320a48 48 0 0 1 48 48V800a48 48 0 0 1-48 48z m0-512H608a48 48 0 0 1-48-48v-320a48 48 0 0 1 48-48h320a48 48 0 0 1 48 48V288a48 48 0 0 1-48 48z"  horiz-adv-x="1024" />

    
    <glyph glyph-name="grid1" unicode="&#58960;" d="M384 768H213.333333a85.333333 85.333333 0 0 1-85.333333-85.333333v-170.666667a85.333333 85.333333 0 0 1 85.333333-85.333333h170.666667a85.333333 85.333333 0 0 1 85.333333 85.333333V682.666667a85.333333 85.333333 0 0 1-85.333333 85.333333zM810.666667 768h-170.666667a85.333333 85.333333 0 0 1-85.333333-85.333333v-170.666667a85.333333 85.333333 0 0 1 85.333333-85.333333h170.666667a85.333333 85.333333 0 0 1 85.333333 85.333333V682.666667a85.333333 85.333333 0 0 1-85.333333 85.333333zM384 341.333333H213.333333a85.333333 85.333333 0 0 1-85.333333-85.333333v-170.666667a85.333333 85.333333 0 0 1 85.333333-85.333333h170.666667a85.333333 85.333333 0 0 1 85.333333 85.333333v170.666667a85.333333 85.333333 0 0 1-85.333333 85.333333zM810.666667 341.333333h-170.666667a85.333333 85.333333 0 0 1-85.333333-85.333333v-170.666667a85.333333 85.333333 0 0 1 85.333333-85.333333h170.666667a85.333333 85.333333 0 0 1 85.333333 85.333333v170.666667a85.333333 85.333333 0 0 1-85.333333 85.333333z"  horiz-adv-x="1024" />

    
    <glyph glyph-name="grid2" unicode="&#58892;" d="M64 736a96 96 0 0 0 96 96h224a96 96 0 0 0 96-96v-224a96 96 0 0 0-96-96H160a96 96 0 0 0-96 96V736z m0-480a96 96 0 0 0 96 96h224a96 96 0 0 0 96-96v-224a96 96 0 0 0-96-96H160a96 96 0 0 0-96 96V256z m576 96a96 96 0 0 1-96-96v-224a96 96 0 0 1 96-96h224a96 96 0 0 1 96 96V256a96 96 0 0 1-96 96H640zM640 832h224q96 0 96-96v-224q0-96-96-96H640q-96 0-96 96V736q0 96 96 96z"  horiz-adv-x="1024" />

    
    <glyph glyph-name="LC_icon_right_line" unicode="&#58880;" d="M750.936 418.128v0l-477.872 477.872-34.128-34.128 477.871-477.872-477.871-477.872 34.128-34.128 512 512z"  horiz-adv-x="1024" />

    
    <glyph glyph-name="LC_icon_left_line" unicode="&#58915;" d="M761.939-128l-527.183 512.016 527.183 511.984 27.312-28.105-498.191-483.879 498.191-483.89z"  horiz-adv-x="1024" />

    
    <glyph glyph-name="LC_icon_menu_line_1" unicode="&#58942;" d="M388.147 896h-300.786c-48.17 0-87.361-39.191-87.361-87.361v-300.786c0-48.17 39.191-87.361 87.361-87.361h300.786c48.17 0 87.361 39.191 87.361 87.361v300.786c0 48.17-39.191 87.361-87.361 87.361zM442.333 507.853c0-29.877-24.308-54.186-54.186-54.186h-300.786c-29.877 0-54.186 24.308-54.186 54.186v300.786c0 29.877 24.308 54.186 54.186 54.186h300.786c29.877 0 54.186-24.308 54.186-54.186l-0-300.786zM936.639 896h-300.786c-48.17 0-87.361-39.191-87.361-87.361v-300.786c0-48.17 39.191-87.361 87.361-87.361h300.786c48.17 0 87.361 39.191 87.361 87.361v300.786c0 48.17-39.191 87.361-87.361 87.361zM990.825 507.853c0-29.877-24.308-54.186-54.186-54.186h-300.786c-29.877 0-54.186 24.308-54.186 54.186v300.786c0 29.877 24.308 54.186 54.186 54.186h300.786c29.877 0 54.186-24.308 54.186-54.186l0-300.786zM388.147 347.508h-300.786c-48.17 0-87.361-39.191-87.361-87.361v-300.786c0-48.17 39.191-87.361 87.361-87.361h300.786c48.17 0 87.361 39.191 87.361 87.361v300.786c0 48.17-39.191 87.361-87.361 87.361zM442.333-40.639c0-29.877-24.308-54.186-54.186-54.186h-300.786c-29.877 0-54.186 24.308-54.186 54.186v300.786c0 29.877 24.308 54.186 54.186 54.186h300.786c29.877 0 54.186-24.308 54.186-54.186l-0-300.786zM936.639 347.508h-300.786c-48.17 0-87.361-39.191-87.361-87.361v-300.786c0-48.17 39.191-87.361 87.361-87.361h300.786c48.17 0 87.361 39.191 87.361 87.361v300.786c0 48.17-39.191 87.361-87.361 87.361zM990.825-40.639c0-29.877-24.308-54.186-54.186-54.186h-300.786c-29.877 0-54.186 24.308-54.186 54.186v300.786c0 29.877 24.308 54.186 54.186 54.186h300.786c29.877 0 54.186-24.308 54.186-54.186l0-300.786z"  horiz-adv-x="1024" />

    
    <glyph glyph-name="right" unicode="&#58918;" d="M877.216 404.192M297.952-53.984c-12.512 12.512-13.248 31.872-2.048 43.776l376.48 376.512c16.16 15.328 16.096 19.328 0 35.424L295.904 778.176C284.672 790.08 285.44 809.44 297.952 821.952c12.736 12.736 32.608 13.44 44.448 1.632l418.176-418.176c5.152-5.152 7.456-11.84 7.872-18.784l0-5.248c-0.448-6.944-2.752-13.632-7.872-18.784L342.4-55.616C330.56-67.392 310.656-66.688 297.952-53.984z"  horiz-adv-x="1024" />

    
    <glyph glyph-name="left" unicode="&#59488;" d="M348.8 384L742.4 777.6c12.8 12.8 12.8 32 0 44.8s-32 12.8-44.8 0l-416-416c-12.8-12.8-12.8-32 0-44.8l416-416c6.4-6.4 16-9.6 22.4-9.6s16 3.2 22.4 9.6c12.8 12.8 12.8 32 0 44.8L348.8 384z"  horiz-adv-x="1024" />

    
    <glyph glyph-name="right1" unicode="&#58909;" d="M294.6 25l351.5 351.5c1.9 1.9 3.1 4.5 3.1 7.5s-1.2 5.6-3.2 7.6L294.6 743c-13.9 13.9-13.9 36.7 0 50.6 13.9 13.9 36.7 13.9 50.6 0l384.3-384.3c13.9-13.9 13.9-36.7 0-50.6-0.1-0.1-0.1-0.1-0.2-0.1L345.1-25.6c-13.9-13.9-36.7-13.9-50.6 0-13.8 13.9-13.8 36.7 0.1 50.6zM641.2 373.8c-0.2 0-0.3-0.1-0.5-0.1 0.2 0 0.3 0 0.5 0.1zM642.9 374.4c-0.1 0-0.1-0.1-0.2-0.1 0.1 0 0.1 0 0.2 0.1zM638.6 373.4h0z"  horiz-adv-x="1024" />

    
    <glyph glyph-name="left1" unicode="&#59018;" d="M672-32c-8 0-16 3.2-22.4 9.6l-384 384c-12.8 12.8-12.8 32 0 44.8l384 384c12.8 12.8 32 12.8 44.8 0 12.8-12.8 12.8-32 0-44.8L332.8 384l361.6-361.6c12.8-12.8 12.8-32 0-44.8-6.4-6.4-14.4-9.6-22.4-9.6z"  horiz-adv-x="1024" />

    
    <glyph glyph-name="Left" unicode="&#59145;" d="M704-64a31.68 31.68 0 0 0-23.488 10.336l-384 416a31.872 31.872 0 0 0 0 43.392l384 416a32 32 0 0 0 46.976-43.392L363.552 384l363.936-394.304A32 32 0 0 0 704-64"  horiz-adv-x="1024" />

    
    <glyph glyph-name="Right" unicode="&#59150;" d="M320-64a32 32 0 0 0-23.488 53.696l363.936 394.336L296.512 778.336a32 32 0 1 0 46.976 43.392l384-416a31.872 31.872 0 0 0 0-43.392l-384-416A31.68 31.68 0 0 0 320-64"  horiz-adv-x="1024" />

    
    <glyph glyph-name="square_grid_x" unicode="&#59598;" d="M199.350857 419.364571H394.788571c54.418286 0 81.846857 27.428571 81.846858 83.986286V694.930286c0 56.576-27.428571 83.565714-81.846858 83.565714H199.350857c-54.418286 0-81.846857-26.989714-81.846857-83.565714v-191.579429c0-56.557714 27.428571-83.986286 81.846857-83.986286z m430.299429 0h194.998857c54.857143 0 81.846857 27.428571 81.846857 83.986286V694.930286c0 56.576-26.989714 83.565714-81.846857 83.565714H629.650286c-54.436571 0-81.865143-26.989714-81.865143-83.565714v-191.579429c0-56.557714 27.428571-83.986286 81.865143-83.986286z m-429.44 60.416c-14.994286 0-22.290286 7.716571-22.290286 23.588572V694.912c0 15.433143 7.296 23.149714 22.308571 23.149714h193.28c14.994286 0 22.710857-7.716571 22.710858-23.149714v-191.579429c0-15.853714-7.716571-23.570286-22.710858-23.570285z m430.281143 0c-14.994286 0-22.272 7.716571-22.272 23.588572V694.912c0 15.433143 7.277714 23.149714 22.272 23.149714h193.718857c14.573714 0 21.869714-7.716571 21.869714-23.149714v-191.579429c0-15.853714-7.296-23.570286-21.869714-23.570285zM199.350857-10.496H394.788571c54.418286 0 81.846857 26.989714 81.846858 83.565714v192c0 56.137143-27.428571 83.565714-81.846858 83.565715H199.350857c-54.418286 0-81.846857-27.428571-81.846857-83.565715v-192c0-56.576 27.428571-83.565714 81.846857-83.565714z m430.299429 0h194.998857c54.857143 0 81.846857 26.989714 81.846857 83.565714v192c0 56.137143-26.989714 83.565714-81.846857 83.565715H629.650286c-54.436571 0-81.865143-27.428571-81.865143-83.565715v-192c0-56.576 27.428571-83.565714 81.865143-83.565714zM200.210286 49.92c-14.994286 0-22.290286 7.716571-22.290286 23.149714V264.649143c0 15.853714 7.296 23.570286 22.308571 23.570286h193.28c14.994286 0 22.710857-7.716571 22.710858-23.588572v-191.561143c0-15.433143-7.716571-23.149714-22.710858-23.149714z m430.281143 0c-14.994286 0-22.272 7.716571-22.272 23.149714V264.649143c0 15.853714 7.277714 23.570286 22.272 23.570286h193.718857c14.573714 0 21.869714-7.716571 21.869714-23.588572v-191.561143c0-15.433143-7.296-23.149714-21.869714-23.149714z"  horiz-adv-x="1024" />

    
    <glyph glyph-name="listgrid" unicode="&#58973;" d="M184.934966 410.443255l251.426333 0c22.01234 0 39.908942 17.904789 39.908942 39.908942l0 251.426333c0 22.004153-17.896602 39.908942-39.908942 39.908942l-251.426333 0c-22.01234 0-39.908942-17.904789-39.908942-39.908942l0-251.426333C145.026024 428.348044 162.922626 410.443255 184.934966 410.443255zM192.916754 693.796742l235.462756 0 0-235.462756-235.462756 0L192.916754 693.796742zM581.358671 410.443255l251.426333 0c22.01234 0 39.908942 17.904789 39.908942 39.908942l0 251.426333c0 22.004153-17.896602 39.908942-39.908942 39.908942l-251.426333 0c-22.01234 0-39.908942-17.904789-39.908942-39.908942l0-251.426333C541.449729 428.348044 559.346331 410.443255 581.358671 410.443255zM589.340459 693.796742l235.462756 0 0-235.462756-235.462756 0L589.340459 693.796742zM440.352193 359.886813l-251.426333 0c-22.01234 0-39.908942-17.904789-39.908942-39.908942l0-251.426333c0-22.004153 17.896602-39.908942 39.908942-39.908942l251.426333 0c22.01234 0 39.908942 17.904789 39.908942 39.908942l0 251.426333C480.261135 341.983047 462.364533 359.886813 440.352193 359.886813zM432.370405 76.533326l-235.462756 0 0 235.462756 235.462756 0L432.370405 76.533326zM836.775898 359.886813l-251.426333 0c-22.01234 0-39.908942-17.904789-39.908942-39.908942l0-251.426333c0-22.004153 17.896602-39.908942 39.908942-39.908942l251.426333 0c22.01234 0 39.908942 17.904789 39.908942 39.908942l0 251.426333C876.68484 341.983047 858.788238 359.886813 836.775898 359.886813zM828.79411 76.533326l-235.462756 0 0 235.462756 235.462756 0L828.79411 76.533326z"  horiz-adv-x="1024" />

    
    <glyph glyph-name="grid" unicode="&#58952;" d="M179.712 394.71104l264.47872 0c11.32544 0 20.48 9.15456 20.48 20.48L464.67072 679.66976c0 11.32544-9.15456 20.48-20.48 20.48L179.712 700.14976c-11.32544 0-20.48-9.15456-20.48-20.48l0-264.47872C159.232 403.88608 168.40704 394.71104 179.712 394.71104zM200.192 659.18976l223.51872 0 0-223.51872L200.192 435.67104 200.192 659.18976zM529.63328 394.71104l264.47872 0c11.32544 0 20.48 9.15456 20.48 20.48L814.592 679.66976c0 11.32544-9.15456 20.48-20.48 20.48L529.63328 700.14976c-11.32544 0-20.48-9.15456-20.48-20.48l0-264.47872C509.15328 403.88608 518.32832 394.71104 529.63328 394.71104zM550.11328 659.18976l223.51872 0 0-223.51872L550.11328 435.67104 550.11328 659.18976zM179.712 44.78976l264.47872 0c11.32544 0 20.48 9.15456 20.48 20.48L464.67072 329.76896c0 11.32544-9.15456 20.48-20.48 20.48L179.712 350.24896c-11.32544 0-20.48-9.15456-20.48-20.48l0-264.47872C159.232 53.9648 168.40704 44.78976 179.712 44.78976zM200.192 309.28896l223.51872 0 0-223.51872L200.192 85.77024 200.192 309.28896zM509.15328 65.26976c0-11.32544 9.15456-20.48 20.48-20.48l264.47872 0c11.32544 0 20.48 9.15456 20.48 20.48L814.592 329.76896c0 11.32544-9.15456 20.48-20.48 20.48L529.63328 350.24896c-11.32544 0-20.48-9.15456-20.48-20.48L509.15328 65.26976zM550.11328 309.28896l223.51872 0 0-223.51872L550.11328 85.77024 550.11328 309.28896z"  horiz-adv-x="1024" />

    
    <glyph glyph-name="iclistgrid" unicode="&#58969;" d="M196.270933 725.333333C170.3936 725.333333 149.3376 704.277333 149.3376 678.4L149.3376 473.578667C149.3376 447.701333 170.3936 426.666667 196.270933 426.666667L401.070933 426.666667C426.948267 426.666667 448.004267 447.701333 448.004267 473.578667L448.004267 678.4C448.004267 704.277333 426.948267 725.333333 401.070933 725.333333L196.270933 725.333333ZM401.070933 384 196.270933 384C146.862933 384 106.670933 424.192 106.670933 473.578667L106.670933 678.4C106.670933 727.808 146.862933 768 196.270933 768L401.070933 768C450.478933 768 490.670933 727.808 490.670933 678.4L490.670933 473.578667C490.670933 424.192 450.478933 384 401.070933 384L401.070933 384ZM620.896 725.333333C595.018667 725.333333 573.962667 704.277333 573.962667 678.4L573.962667 473.578667C573.962667 447.701333 595.018667 426.666667 620.896 426.666667L825.717333 426.666667C851.573333 426.666667 872.629333 447.701333 872.629333 473.578667L872.629333 678.4C872.629333 704.277333 851.573333 725.333333 825.717333 725.333333L620.896 725.333333ZM825.717333 384 620.896 384C571.488 384 531.296 424.192 531.296 473.578667L531.296 678.4C531.296 727.808 571.488 768 620.896 768L825.717333 768C875.104 768 915.296 727.808 915.296 678.4L915.296 473.578667C915.296 424.192 875.104 384 825.717333 384L825.717333 384ZM196.270933 300.686933C170.3936 300.686933 149.3376 279.630933 149.3376 253.7536L149.3376 48.9536C149.3376 23.076267 170.3936 2.020267 196.270933 2.020267L401.070933 2.020267C426.948267 2.020267 448.004267 23.076267 448.004267 48.9536L448.004267 253.7536C448.004267 279.630933 426.948267 300.686933 401.070933 300.686933L196.270933 300.686933ZM401.070933-40.6464 196.270933-40.6464C146.862933-40.6464 106.670933-0.4544 106.670933 48.9536L106.670933 253.7536C106.670933 303.1616 146.862933 343.3536 196.270933 343.3536L401.070933 343.3536C450.478933 343.3536 490.670933 303.1616 490.670933 253.7536L490.670933 48.9536C490.670933-0.4544 450.478933-40.6464 401.070933-40.6464L401.070933-40.6464ZM620.896 300.686933C595.018667 300.686933 573.962667 279.630933 573.962667 253.7536L573.962667 48.9536C573.962667 23.076267 595.018667 2.020267 620.896 2.020267L825.717333 2.020267C851.573333 2.020267 872.629333 23.076267 872.629333 48.9536L872.629333 253.7536C872.629333 279.630933 851.573333 300.686933 825.717333 300.686933L620.896 300.686933ZM825.717333-40.6464 620.896-40.6464C571.488-40.6464 531.296-0.4544 531.296 48.9536L531.296 253.7536C531.296 303.1616 571.488 343.3536 620.896 343.3536L825.717333 343.3536C875.104 343.3536 915.296 303.1616 915.296 253.7536L915.296 48.9536C915.296-0.4544 875.104-40.6464 825.717333-40.6464L825.717333-40.6464Z"  horiz-adv-x="1024" />

    
    <glyph glyph-name="pinglun1" unicode="&#58988;" d="M337.36192-18.688c-3.5584 0-7.13728 0.75776-10.496 2.304-8.89856 4.096-14.61248 12.99968-14.61248 22.8096L312.25344 113.4592c0 13.29152-10.81344 24.09984-24.12544 24.09984l-122.88 0c-41.00096 0-74.35264 33.3568-74.35264 74.33216L90.89536 660.3008c0 40.9856 33.35168 74.33728 74.35264 74.33728l708.80768 0c40.97536 0 74.32704-33.35168 74.32704-74.33728l0-448.41472c0-40.97536-33.35168-74.33216-74.32704-74.33216l-336.19968 0c-5.76 0-11.35104-2.048-15.73888-5.8368l-168.41728-144.3584C349.06112-16.62464 343.24992-18.688 337.36192-18.688zM179.7888 673.28c-12.86656 0-23.31648-10.1632-23.31648-22.67136l0-421.5552c0-12.48768 10.44992-22.656 23.31648-22.656l118.72256 0c39.61344 0 71.83872-31.36 71.83872-69.87264l0-49.29536 122.7008 102.33856c13.05088 10.8544 29.63968 16.82944 46.7456 16.82944l324.82816 0c12.84096 0 23.28576 10.1632 23.28576 22.656L887.9104 650.60864c0 12.50304-10.4448 22.67136-23.28576 22.67136L179.7888 673.28z"  horiz-adv-x="1024" />

    
    <glyph glyph-name="pinglun" unicode="&#58978;" d="M181.950464-8.356864c-10.888192 0-21.697536 0.336896-32.377856 0.99328l-48.2304 2.963456 42.43968 22.79936c50.363392 27.060224 90.082304 70.546432 112.79872 123.194368C156.571648 206.460928 99.479552 302.503936 99.479552 406.69184c0 187.336704 188.312576 339.760128 419.76832 339.760128S938.998784 594.028544 938.998784 406.69184c0-187.341824-188.294144-339.760128-419.750912-339.760128-18.069504 0-36.352 0.960512-54.388736 2.854912-42.69568-26.135552-90.272768-46.212096-141.495296-59.675648C276.752384-2.148352 229.175296-8.356864 181.950464-8.356864zM519.248896 718.984192c-216.107008 0-391.93088-140.096512-391.93088-312.292352 0-97.857536 56.060928-188.228608 153.796608-247.955456l9.73312-5.958656-4.037632-10.551296c-18.650112-48.950272-50.323456-91.405312-91.144192-122.9312 40.2944 1.074176 80.775168 6.902784 120.51968 17.350656 50.148352 13.182976 96.55808 33.00352 137.920512 58.91584l4.174848 2.598912 4.891648-0.562176c18.571264-2.132992 37.436416-3.204096 56.076288-3.204096 216.09472 0 391.907328 140.091392 391.907328 312.297472C911.156224 578.88768 735.342592 718.984192 519.248896 718.984192z"  horiz-adv-x="1024" />

    
    <glyph glyph-name="pinglun2" unicode="&#58958;" d="M900.3 802.1H123.7c-33 0-59.7-26.7-59.7-59.7v-537.6c0-33 26.7-59.7 59.7-59.7h59.7v-179.2l268.8 179.2h448c33 0 59.7 26.7 59.7 59.7V742.4c0.1 33-26.6 59.7-59.6 59.7z m0-567.4c0-16.5-13.4-29.9-29.9-29.9h-448L243.2 85.29999999999995V204.79999999999995h-89.6c-16.5 0-29.9 13.4-29.9 29.9V712.5c0 16.5 13.4 29.9 29.9 29.9h716.8c16.5 0 29.9-13.4 29.9-29.9v-477.8z"  horiz-adv-x="1024" />

    
    <glyph glyph-name="pinglun-" unicode="&#59001;" d="M128-25.6c-3.3 0-6.7 0.6-9.9 2-9.5 4-15.7 13.3-15.7 23.6V554.7c0 108.2 88 196.2 196.2 196.2h426.7c108.2 0 196.2-88 196.2-196.2v-231.4c0-108.2-88-196.2-196.2-196.2H293.1L146-18.2c-4.9-4.8-11.4-7.4-18-7.4z m170.6 725.3c-80 0-145-65.1-145-145v-493.5l111.1 109.6c4.8 4.7 11.2 7.4 18 7.4h442.7c80 0 145 65.1 145 145V554.7c0 80-65.1 145-145 145H298.6z"  horiz-adv-x="1024" />

    
    <glyph glyph-name="md-menu" unicode="&#59199;" d="M128 128h768v85.332H128V128z m0 213.332h768v85.334H128v-85.334zM128 640v-85.33h768V640H128z"  horiz-adv-x="1024" />

    
    <glyph glyph-name="hamburger-menu" unicode="&#58970;" d="M192 576h640a64 64 0 0 1 0 128H192a64 64 0 0 1 0-128z m640-128H192a64 64 0 0 1 0-128h640a64 64 0 0 1 0 128z m0-256H192a64 64 0 0 1 0-128h640a64 64 0 0 1 0 128z"  horiz-adv-x="1024" />

    
    <glyph glyph-name="md-menu1" unicode="&#59046;" d="M128 128h768v85.332H128V128z m0 213.332h768v85.334H128v-85.334zM128 640v-85.33h768V640H128z"  horiz-adv-x="1024" />

    
    <glyph glyph-name="msg1" unicode="&#58908;" d="M515.998 756.004c-253.6 0-459.2-179.9-459.2-401.8 0-126.822 67.292-232.518 172.206-306.166l0-210.456 210.458 114.806 76.534 0c253.626 0 459.222 179.878 459.204 401.816C975.202 576.104 769.604 756.004 515.998 756.004zM286.382 296.794c-31.69 0-57.386 25.694-57.386 57.4 0 31.708 25.698 57.422 57.386 57.422 31.724 0 57.418-25.698 57.418-57.422S318.084 296.794 286.382 296.794zM515.988 296.794c-31.724 0-57.418 25.694-57.418 57.418s25.694 57.422 57.418 57.422 57.422-25.698 57.422-57.422S547.714 296.794 515.988 296.794zM745.622 296.794c-31.724 0-57.422 25.694-57.422 57.418s25.698 57.422 57.422 57.422c31.686 0 57.384-25.698 57.384-57.422S777.306 296.794 745.622 296.794z"  horiz-adv-x="1024" />

    
    <glyph glyph-name="msg" unicode="&#58947;" d="M109.48608 187.159893s45.216427-50.793813 113.09056-95.90784c0 0 50.916693-39.54688 67.877547-50.793813 0 0 5.700267-11.23328 0-28.166827 0 0-22.674773-73.413973-33.938774-90.34752 0 0-11.260587-33.867093 11.270827-45.1072 0 0 22.674773-5.69344 50.906453 5.67296 0 0 130.061653 62.047573 197.94944 135.45472 0 0 203.64288 5.69344 316.740267 95.90784 0 0 164.007253 107.281067 186.6752 282.14272 0 0 28.238507 197.492053-113.093973 332.950187 0 0-124.494507 146.701653-396.018347 163.62496 0 0-226.317653 0-356.379307-129.764693 0 0-135.765333-90.350933-152.73984-299.076267 0.27648 0-11.137707-163.754667 107.656534-276.60288l0.003413 0.013653z m181.111467 389.440854h458.202453c16.96768 0 28.235093-11.240107 28.235093-28.173654s-11.260587-28.166827-28.235093-28.166826H290.597547c-16.971093 0-28.238507 11.246933-28.238507 28.166826 0 16.92672 11.267413 28.173653 28.238507 28.173654z m56.4736-169.314987h282.804906c16.974507 0 28.235093-11.246933 28.235094-28.17024 0-16.92672-11.25376-28.173653-28.235094-28.173653h-282.804906c-16.974507 0-28.238507 11.246933-28.238507 28.173653-0.003413 16.92672 16.96768 28.17024 28.238507 28.17024z"  horiz-adv-x="1024" />

    
    <glyph glyph-name="f-sort" unicode="&#59240;" d="M429.849 339.083H138.048c-20.435 0-37-16.565-37-37v-291.801c0-20.435 16.565-37 37-37h291.801c20.435 0 37 16.565 37 37V302.083c0 20.435-16.566 37-37 37zM429.849 794.717H138.048c-20.435 0-37-16.565-37-37v-291.801c0-20.435 16.565-37 37-37h291.801c20.435 0 37 16.565 37 37V757.717c0 20.435-16.566 37-37 37zM885.952 339.083H594.151c-20.435 0-37-16.565-37-37v-291.801c0-20.435 16.565-37 37-37h291.801c20.435 0 37 16.565 37 37V302.083c0 20.435-16.565 37-37 37zM594.522151 466.286544a192.387 192.387 0 1 1 272.071556 272.081054 192.387 192.387 0 1 1-272.071556-272.081054Z"  horiz-adv-x="1024" />

    
    <glyph glyph-name="f-share" unicode="&#59241;" d="M775.66 247.625c-41.606 0-79.061-18.096-104.922-46.824a36.989 36.989 0 0 1-9.155 5.404L381.15 321.196c5.411 14.96 8.368 31.085 8.368 47.89 0 17.61-3.25 34.472-9.167 50.032l145.41 125.073c22.438-15.034 49.402-23.815 78.381-23.815 77.846 0 141.178 63.332 141.178 141.178 0 77.847-63.332 141.18-141.178 141.18-77.847 0-141.179-63.333-141.179-141.18 0-22.067 5.094-42.966 14.16-61.589L336.656 479.142c-24.199 19.458-54.918 31.122-88.314 31.122-77.847 0-141.18-63.332-141.18-141.178s63.333-141.178 141.18-141.178c33.56 0 64.416 11.778 88.669 31.408l296.497-121.579a37.376 37.376 0 0 1 4.165-1.417 141.148 141.148 0 0 1-3.191-29.874c0-77.846 63.332-141.178 141.179-141.178 77.846 0 141.178 63.332 141.178 141.178-0.001 77.846-63.333 141.179-141.179 141.179z"  horiz-adv-x="1024" />

    
    <glyph glyph-name="f-tag" unicode="&#59242;" d="M912.944 439.166l-19.382 291.93c-1.228 18.503-15.964 33.239-34.467 34.467l-291.93 19.382a36.992 36.992 0 0 1-28.614-10.755l-416.74-416.74c-14.449-14.449-14.449-37.876 0-52.326l311.312-311.312c7.225-7.225 16.694-10.837 26.163-10.837s18.938 3.612 26.163 10.837l416.74 416.74a36.995 36.995 0 0 1 10.755 28.614z m-179.943 67.503c-27.154-27.154-71.179-27.154-98.332 0-27.154 27.154-27.154 71.179 0 98.332 27.154 27.154 71.178 27.154 98.332 0 27.154-27.154 27.154-71.178 0-98.332z"  horiz-adv-x="1024" />

    
    <glyph glyph-name="f-msg" unicode="&#59260;" d="M510.928 766.903c-212.282 0-384.976-148.481-384.976-330.984 0-126.406 83.172-240.866 213.641-296.531v-111.281a29.565 29.565 0 0 1 16.386-26.443 29.7 29.7 0 0 1 13.23-3.106 29.607 29.607 0 0 1 17.801 5.937l133.967 100.551c207.658 4.599 374.927 151.254 374.927 330.873-0.001 182.503-172.693 330.984-384.976 330.984z m-20.92-503.949c-4.22-16.789-19.297-27.988-35.855-27.988-2.987 0-6.02 0.364-9.048 1.125-48.88 12.288-92.274 36.444-125.492 69.858-34.084 34.286-55.952 76.738-63.238 122.766-3.195 20.183 10.577 39.135 30.76 42.33 20.187 3.194 39.135-10.577 42.33-30.76 10.049-63.481 61.273-114.225 133.682-132.427 19.816-4.982 31.843-25.087 26.861-44.904z"  horiz-adv-x="1024" />

    
    <glyph glyph-name="f-msg1" unicode="&#59265;" d="M818.217 125.87c25.597 30.29 46.421 64.031 62.111 100.694 21.328 49.84 32.143 102.809 32.143 157.436 0 54.047-10.593 106.497-31.486 155.893-20.172 47.692-49.042 90.516-85.809 127.283-36.767 36.767-79.59 65.637-127.283 85.809-49.396 20.892-101.846 31.486-155.893 31.486s-106.497-10.594-155.893-31.486c-47.692-20.172-90.516-49.042-127.283-85.809-36.767-36.767-65.637-79.591-85.809-127.283-20.892-49.396-31.486-101.846-31.486-155.893s10.593-106.497 31.486-155.893c20.172-47.692 49.042-90.516 85.809-127.283 36.767-36.767 79.59-65.637 127.283-85.809 49.396-20.893 101.846-31.486 155.893-31.486h359.231a37.001 37.001 0 0 1 26.163 63.163l-79.177 79.178zM322.875 332.513c-28.435 0-51.487 23.052-51.487 51.487s23.052 51.487 51.487 51.487c28.436 0 51.487-23.052 51.487-51.487s-23.052-51.487-51.487-51.487z m189.125 0c-28.436 0-51.487 23.052-51.487 51.487s23.051 51.487 51.487 51.487 51.487-23.052 51.487-51.487-23.051-51.487-51.487-51.487z m189.125 0c-28.436 0-51.487 23.052-51.487 51.487s23.052 51.487 51.487 51.487c28.435 0 51.487-23.052 51.487-51.487s-23.051-51.487-51.487-51.487z"  horiz-adv-x="1024" />

    
    <glyph glyph-name="heart-fill" unicode="&#59154;" d="M903.637333 350.122667l0.554667-0.597334L512-42.666667l-392.192 392.192 0.554667 0.597334A277.333333 277.333333 0 0 0 512 740.693333a277.333333 277.333333 0 0 0 391.637333-390.570666z"  horiz-adv-x="1024" />

    
    <glyph glyph-name="appstore" unicode="&#59108;" d="M914.285714 804.571429H566.857143c-10.057143 0-18.285714-8.228571-18.285714-18.285715v-347.428571c0-10.057143 8.228571-18.285714 18.285714-18.285714h347.428571c10.057143 0 18.285714 8.228571 18.285715 18.285714V786.285714c0 10.057143-8.228571 18.285714-18.285715 18.285715z m0-457.142858H566.857143c-10.057143 0-18.285714-8.228571-18.285714-18.285714v-347.428571c0-10.057143 8.228571-18.285714 18.285714-18.285715h347.428571c10.057143 0 18.285714 8.228571 18.285715 18.285715V329.142857c0 10.057143-8.228571 18.285714-18.285715 18.285714zM457.142857 804.571429H109.714286c-10.057143 0-18.285714-8.228571-18.285715-18.285715v-347.428571c0-10.057143 8.228571-18.285714 18.285715-18.285714h347.428571c10.057143 0 18.285714 8.228571 18.285714 18.285714V786.285714c0 10.057143-8.228571 18.285714-18.285714 18.285715z m0-457.142858H109.714286c-10.057143 0-18.285714-8.228571-18.285715-18.285714v-347.428571c0-10.057143 8.228571-18.285714 18.285715-18.285715h347.428571c10.057143 0 18.285714 8.228571 18.285714 18.285715V329.142857c0 10.057143-8.228571 18.285714-18.285714 18.285714z"  horiz-adv-x="1024" />

    
    <glyph glyph-name="calendar" unicode="&#59109;" d="M54.857143-36.571429c0-20.228571 16.342857-36.571429 36.571428-36.571428h841.142858c20.228571 0 36.571429 16.342857 36.571428 36.571428V443.428571H54.857143v-480z m877.714286 795.428572H740.571429v73.142857c0 5.028571-4.114286 9.142857-9.142858 9.142857h-64c-5.028571 0-9.142857-4.114286-9.142857-9.142857v-73.142857H365.714286v73.142857c0 5.028571-4.114286 9.142857-9.142857 9.142857h-64c-5.028571 0-9.142857-4.114286-9.142858-9.142857v-73.142857H91.428571c-20.228571 0-36.571429-16.342857-36.571428-36.571429v-201.142857h914.285714V722.285714c0 20.228571-16.342857 36.571429-36.571428 36.571429z"  horiz-adv-x="1024" />

    
    <glyph glyph-name="pen" unicode="&#58932;" d="M359.225267 58.035971c-2.548171 0-5.095126 0.838038-7.221238 2.546955-4.94552 3.987067-5.726392 11.237497-1.739325 16.180584L771.396548 599.356362l-36.437026 86.733915-66.640459 53.696478-92.505311 17.169445L154.684341 234.365782c-4.001663-4.960116-11.252092-5.693551-16.183017-1.736892-4.944304 3.982202-5.722743 11.23628-1.738108 16.180584l429.759137 533.290306 111.71086-20.735669 75.693461-61.008939 44.01586-104.745047-429.759137-533.28909C365.906463 59.504059 362.581069 58.035971 359.225267 58.035971zM784.671366 585.976942c-2.548171 0-5.09391 0.840471-7.222454 2.546955-4.944304 3.984635-5.723959 11.237497-1.738108 16.183017l69.023212 85.685455L808.299422 777.125069l-66.629512 53.681882L649.165815 847.992208l-69.039024-85.686672c-3.995581-4.943088-11.235064-5.692335-16.179368-1.736892-4.943088 3.985851-5.723959 11.23628-1.740541 16.180584L639.879281 873.133355l111.71086-20.751481 75.674-60.994344 44.021941-104.741399-77.656587-96.385343C791.352561 587.446246 788.024735 585.976942 784.671366 585.976942zM216.891347 172.72801c-2.548171 0-5.09391 0.838038-7.222454 2.548171-4.943088 3.985851-5.722743 11.237497-1.738108 16.180584l425.446099 527.956783c3.99923 4.957683 11.252092 5.706931 16.180584 1.736892 4.944304-3.984635 5.723959-11.23628 1.735676-16.1818L225.850693 177.011857C223.573759 174.194881 220.247149 172.72801 216.891347 172.72801zM288.057699 115.389897c-2.548171 0-5.092694 0.838038-7.221238 2.546955-4.943088 3.987067-5.722743 11.235064-1.738108 16.1818l425.444882 527.940971c4.013826 4.943088 11.252092 5.692335 16.180584 1.738108 4.943088-3.984635 5.723959-11.23628 1.740541-16.1818L297.017045 119.672527C294.738895 116.856768 291.414717 115.389897 288.057699 115.389897zM118.021081-11.303481l4.19384 238.209628c0.121631 6.319952 4.75091 11.790918 11.717939 11.297096 6.351576-0.119198 11.401699-5.351768 11.29588-11.715507l-3.685422-208.572996 203.029051 47.927515c6.217781 1.452275 12.389343-2.352345 13.842835-8.539719 1.469304-6.18859-2.366941-12.391776-8.555531-13.8477L118.021081-11.303481zM202.253045 8.906741c-2.546955 0-5.09391 0.840471-7.222454 2.549388l-71.151756 57.353925c-4.944304 3.980986-5.723959 11.23628-1.738108 16.180584 4.001663 4.9589 11.252092 5.691119 16.180584 1.735676l71.154189-57.34906c4.944304-3.987067 5.723959-11.241146 1.736892-16.184233C208.935457 10.376044 205.608847 8.906741 202.253045 8.906741zM905.431579-107.80559 129.782808-107.80559c-6.352792 0-11.506301 5.153509-11.506301 11.505085 0 6.352792 5.153509 11.506301 11.506301 11.506301l775.649988 0c6.350359 0 11.505085-5.153509 11.505085-11.506301C916.936664-102.65208 911.781938-107.80559 905.431579-107.80559z"  horiz-adv-x="1035" />

    
    <glyph glyph-name="pencil-fill" unicode="&#59005;" d="M740.5568 370.8416l-241.664 241.664L555.008 668.672a76.8512 76.8512 0 0 0 108.6976 0l132.9664-132.9664a76.8512 76.8512 0 0 0 0-108.6976l-56.1152-56.1664z m-35.328-35.2768L476.672 106.9056A102.8096 102.8096 0 0 0 402.2272 76.8l-170.1376 2.7648a24.9344 24.9344 0 0 0-24.576 24.576L204.8 274.176a102.8096 102.8096 0 0 0 30.1056 74.3936l228.6592 228.608 241.664-241.664z m-220.7744 130.56L388.9152 370.688a24.9344 24.9344 0 1 1 35.328-35.328l95.488 95.5392a24.9344 24.9344 0 1 1-35.328 35.328z m-154.4704-154.4704l-7.5776-7.5264a24.9344 24.9344 0 0 1 35.328-35.328l7.5264 7.5776a24.9344 24.9344 0 1 1-35.328 35.328z"  horiz-adv-x="1024" />

    
    <glyph glyph-name="home1" unicode="&#58961;" d="M418.934-79.278V248.146H604.85v-327.424h232.402V357.294h139.433L511.892 848.425 47.104 357.289h139.433v-436.562h232.392v-0.005z m0 0"  horiz-adv-x="1024" />

    
    <glyph glyph-name="Pencil" unicode="&#59537;" d="M1011.413333 657.706667L785.28 884.053333a43.946667 43.946667 0 0 1-59.946667 0L110.506667 269.653333a42.666667 42.666667 0 0 1-10.666667-17.92L1.92-72.533333a42.666667 42.666667 0 0 1 10.666667-42.666667A42.666667 42.666667 0 0 1 42.666667-128a42.666667 42.666667 0 0 1 12.373333 1.92l324.266667 97.92a42.666667 42.666667 0 0 1 17.92 10.88L1011.413333 597.333333a42.666667 42.666667 0 0 1 0 60.373334z m-256 135.68l60.373334-60.16-533.333334-534.613334a111.36 111.36 0 0 0-64 57.6zM125.866667 42.666667l48.64 160.853333a179.84 179.84 0 0 1 89.813333-66.986667 179.626667 179.626667 0 0 1 67.2-89.813333L170.666667-1.493333zM384 90.24a111.573333 111.573333 0 0 0-57.386667 64L860.586667 688l60.373333-60.373333z"  horiz-adv-x="1024" />

    
    <glyph glyph-name="settings" unicode="&#59578;" d="M829.013333 342.4c1.706667 13.653333 2.986667 27.52 2.986667 41.6s-1.28 27.946667-2.986667 41.6l90.24 70.613333c8.106667 6.4 10.453333 17.92 5.12 27.306667l-85.333333 147.84c-5.333333 9.173333-16.426667 13.013333-26.026667 9.173333l-106.24-42.88c-21.973333 16.853333-46.08 31.146667-72.106666 42.026667L618.666667 792.746667c-1.92 10.026667-10.666667 17.92-21.333334 17.92h-170.666666c-10.666667 0-19.413333-7.893333-21.12-17.92l-16-113.066667a315.733333 315.733333 0 0 1-72.106667-42.026667L211.2 680.533333a21.333333 21.333333 0 0 1-26.026667-9.173333l-85.333333-147.84c-5.333333-9.173333-2.986667-20.693333 5.12-27.306667l90.026667-70.613333C193.28 411.946667 192 398.08 192 384s1.28-27.946667 2.986667-41.6l-90.026667-70.613333c-8.106667-6.4-10.453333-17.92-5.12-27.306667l85.333333-147.84c5.333333-9.173333 16.426667-13.013333 26.026667-9.173333l106.24 42.88c21.973333-16.853333 46.08-31.146667 72.106667-42.026667l16-113.066667c1.706667-10.026667 10.453333-17.92 21.12-17.92h170.666666c10.666667 0 19.413333 7.893333 21.12 17.92l16 113.066667a315.733333 315.733333 0 0 1 72.106667 42.026667l106.24-42.88a21.333333 21.333333 0 0 1 26.026667 9.173333l85.333333 147.84c5.333333 9.173333 2.986667 20.693333-5.12 27.306667l-90.026667 70.613333zM512 234.666667c-82.56 0-149.333333 66.773333-149.333333 149.333333s66.773333 149.333333 149.333333 149.333333 149.333333-66.773333 149.333333-149.333333-66.773333-149.333333-149.333333-149.333333z"  horiz-adv-x="1024" />

    
    <glyph glyph-name="fingerprint" unicode="&#59541;" d="M759.893333 705.28c-3.413333 0-6.613333 0.853333-9.813333 2.346667C668.373333 749.866667 597.333333 768 512.426667 768c-84.693333 0-164.48-20.266667-237.653334-60.16a21.418667 21.418667 0 0 0-20.48 37.546667C333.866667 788.693333 420.693333 810.666667 512.426667 810.666667c90.88 0 170.24-20.053333 257.28-65.066667 10.453333-5.333333 14.506667-18.346667 9.173333-28.8-3.84-7.253333-11.306667-11.52-18.986667-11.52zM149.333333 481.28c-4.266667 0-8.533333 1.28-12.373333 3.84a21.248 21.248 0 0 0-5.12 29.653333c42.24 59.733333 96.213333 106.666667 160.213333 139.733334 134.186667 69.333333 305.706667 69.546667 440.106667 0.426666 63.786667-32.853333 117.546667-79.36 160-138.666666 6.826667-9.6 4.693333-22.826667-4.906667-29.653334-9.6-6.826667-23.04-4.693333-29.866666 4.906667-38.4 53.76-87.04 96-144.64 125.44-122.453333 62.933333-278.826667 62.72-401.066667-0.426667-57.813333-29.866667-106.666667-72.32-144.853333-126.506666-4.266667-5.76-10.88-8.746667-17.493334-8.746667z m266.88-514.773333c-5.546667 0-10.88 2.133333-15.146666 6.4-36.906667 37.333333-56.96 61.013333-85.76 112.426666-29.44 52.48-45.013333 116.693333-45.013334 185.386667 0 126.72 108.373333 229.973333 241.706667 229.973333s241.706667-103.04 241.706667-229.973333c0-11.733333-9.6-21.333333-21.333334-21.333333s-21.333333 9.6-21.333333 21.333333c0 103.253333-89.173333 187.306667-199.04 187.306667-109.653333 0-199.04-84.053333-199.04-187.306667 0-61.44 13.653333-118.186667 39.466667-164.48 27.52-49.066667 45.866667-70.186667 78.72-103.253333 8.32-8.32 8.32-21.973333-0.213334-30.08-3.84-4.48-9.386667-6.4-14.72-6.4z m305.706667 78.933333c-50.773333 0-95.36 12.8-132.266667 37.76-63.36 43.093333-101.333333 113.066667-101.333333 187.306667 0 11.733333 9.6 21.333333 21.333333 21.333333s21.333333-9.6 21.333334-21.333333c0-59.946667 30.933333-116.693333 82.773333-151.893334 30.08-20.48 65.493333-30.506667 108.16-30.506666 10.24 0 27.52 1.066667 44.586667 4.053333 11.52 2.133333 22.613333-5.76 24.746666-17.28 2.133333-11.52-5.76-22.613333-17.28-24.746667-24.96-4.48-46.08-4.693333-52.053333-4.693333zM635.946667-42.666667c-1.92 0-3.84 0.213333-5.546667 0.853334-68.053333 18.56-112.426667 43.733333-158.506667 89.6a312.362667 312.362667 0 0 0-92.373333 222.72c0 69.333333 58.88 125.653333 131.413333 125.653333 72.533333 0 131.413333-56.32 131.413334-125.653333 0-45.653333 39.893333-82.986667 88.746666-82.986667s88.746667 37.12 88.746667 82.986667c0 160.853333-138.666667 291.626667-309.12 291.626666-121.386667 0-232.106667-67.413333-282.026667-171.946666-16.64-34.56-24.96-74.88-24.96-119.68 0-33.28 2.986667-85.76 28.373334-153.813334 4.053333-11.093333-1.493333-23.253333-12.586667-27.52-11.093333-4.053333-23.253333 1.493333-27.52 12.586667-20.906667 56.106667-31.146667 111.146667-31.146667 168.746667 0 51.2 9.813333 97.706667 29.226667 138.026666 56.96 119.04 182.826667 196.053333 320.426667 196.053334 193.92 0 351.786667-149.973333 351.786666-334.293334 0-69.333333-59.093333-125.653333-131.413333-125.653333s-131.413333 56.32-131.413333 125.653333c0 45.653333-39.893333 82.986667-88.746667 82.986667s-88.746667-37.12-88.746667-82.986667c0-72.746667 28.373333-141.226667 79.786667-192.426666 40.32-40.106667 79.573333-62.293333 139.733333-78.72 11.306667-3.2 18.133333-14.933333 14.933334-26.24-2.56-9.386667-11.093333-15.573333-20.48-15.573334z"  horiz-adv-x="1024" />

    
    <glyph glyph-name="clearall" unicode="&#59104;" d="M213.333333 341.333333l597.333333 0 0 85.333333-597.333333 0 0-85.333333zM128 170.666667l597.333333 0 0 85.333333-597.333333 0 0-85.333333zM298.666667 597.333333l0-85.333333 597.333333 0 0 85.333333-597.333333 0z"  horiz-adv-x="1024" />

    
    <glyph glyph-name="arrowforward" unicode="&#60016;" d="M512 726.016l342.016-342.016-342.016-342.016-59.989333 59.989333 237.994667 240-520.021333 0 0 84.010667 520.021333 0-237.994667 240z"  horiz-adv-x="1024" />

    
    <glyph glyph-name="share" unicode="&#60683;" d="M768 210.005333q52.010667 0 88.021333-36.992t36.010667-86.997333q0-52.010667-36.992-89.002667t-86.997333-36.992-86.997333 36.992-36.992 89.002667q0 20.010667 2.005333 27.989333l-301.994667 176q-38.016-34.005333-88.021333-34.005333-52.010667 0-89.984 38.016t-38.016 89.984 38.016 89.984 89.984 38.016q50.005333 0 88.021333-34.005333l299.989333 173.994667q-4.010667 20.010667-4.010667 29.994667 0 52.010667 38.016 89.984t89.984 38.016 89.984-38.016 38.016-89.984-38.016-89.984-89.984-38.016q-48 0-88.021333 36.010667l-299.989333-176q4.010667-20.010667 4.010667-29.994667t-4.010667-29.994667l304-176q36.010667 32 84.010667 32z"  horiz-adv-x="1024" />

    
    <glyph glyph-name="viewcarousel" unicode="&#60252;" d="M768 640 768 170.666667 938.666667 170.666667 938.666667 640M85.333333 170.666667 256 170.666667 256 640 85.333333 640M298.666667 85.333333 725.333333 85.333333 725.333333 725.333333 298.666667 725.333333 298.666667 85.333333Z"  horiz-adv-x="1024" />

    
    <glyph glyph-name="setting" unicode="&#58930;" d="M809.188 345.022c1.6 12.8 2.799 25.799 2.799 38.998s-1.2 26.198-2.799 38.998l84.596 66.197c7.6 6 9.8 16.799 4.8 25.599l-79.996 138.594c-5 8.6-15.399 12.199-24.399 8.6l-99.596-40.199c-20.599 15.8-43.198 29.198-67.597 39.398l-14.999 105.996c-1.8 9.399-9.999 16.799-20 16.799l-159.994 0c-9.999 0-18.199-7.4-19.799-16.799l-14.999-105.996c-24.399-10.2-46.999-23.399-67.597-39.398l-99.596 40.199c-9 3.4-19.399 0-24.399-8.6l-79.996-138.594c-5-8.6-2.8-19.399 4.8-25.599l84.397-66.197c-1.6-12.8-2.8-25.799-2.8-38.998 0-13.2 1.2-26.198 2.8-38.998l-84.397-66.197c-7.6-6-9.8-16.799-4.8-25.599l79.996-138.594c5-8.6 15.399-12.199 24.399-8.6l99.596 40.199c20.599-15.8 43.198-29.198 67.597-39.398l14.999-105.996c1.6-9.399 9.8-16.799 19.799-16.799l159.994 0c9.999 0 18.199 7.4 19.799 16.799l14.999 105.996c24.399 10.2 46.999 23.399 67.597 39.398l99.596-40.199c9-3.4 19.399 0 24.399 8.6l79.996 138.594c5 8.6 2.8 19.399-4.8 25.599l-84.396 66.197zM512 244.027c-77.396 0-139.994 62.598-139.994 139.994s62.598 139.994 139.994 139.994 139.994-62.598 139.994-139.994-62.598-139.994-139.994-139.994z"  horiz-adv-x="1024" />

    
    <glyph glyph-name="exit" unicode="&#58971;" d="M128 381.888c0-21.248 17.216-38.464 38.464-38.464l404.736-0.32-88.064-88.512c-15.04-14.976-15.04-39.36 0-54.4s39.36-14.976 54.4 0l147.712 148.352c2.688 1.536 5.184 3.52 7.488 5.824 7.744 7.744 11.456 17.92 11.264 28.032 0.192 10.112-3.52 20.288-11.264 28.032-2.304 2.24-4.8 4.16-7.488 5.824L537.536 564.736c-15.04 14.976-39.36 14.976-54.4 0-15.04-15.04-15.04-39.424 0-54.464l89.92-90.24L166.464 420.352C145.216 420.352 128 403.136 128 381.888zM213.312 0l597.312 0C857.6 0 896 38.4 896 85.312L896 682.688C896 729.6 857.6 768 810.688 768L213.312 768C165.952 768 128 729.6 128 682.688l0-107.072C128 547.904 146.112 546.368 170.816 537.6c24.64 8.704 42.56 10.176 42.56 37.952L213.376 682.688l597.312 0 0-597.312L213.312 85.376l0 107.136c0 27.712-18.176 29.184-42.816 37.952C145.856 221.632 128 220.224 128 192.448l0-107.136C128 38.4 165.952 0 213.312 0z"  horiz-adv-x="1024" />

    
    <glyph glyph-name="account-circle" unicode="&#58917;" d="M512 810.666667C277.333333 810.666667 85.333333 618.666667 85.333333 384s192-426.666667 426.666667-426.666667 426.666667 192 426.666667 426.666667S746.666667 810.666667 512 810.666667z m0-128c72.533333 0 128-55.466667 128-128s-55.466667-128-128-128-128 55.466667-128 128 55.466667 128 128 128z m0-605.866667c-106.666667 0-200.533333 55.466667-256 136.533333 0 85.333333 170.666667 132.266667 256 132.266667s256-46.933333 256-132.266667c-55.466667-81.066667-149.333333-136.533333-256-136.533333z"  horiz-adv-x="1024" />

    
    <glyph glyph-name="arrow-back" unicode="&#58922;" d="M853.333333 426.666667H332.8l238.933333 238.933333L512 725.333333l-341.333333-341.333333 341.333333-341.333333 59.733333 59.733333L332.8 341.333333H853.333333v85.333334z"  horiz-adv-x="1024" />

    
    <glyph glyph-name="apps" unicode="&#58914;" d="M682.666667 42.666667h170.666666v170.666666h-170.666666m0 85.333334h170.666666v170.666666h-170.666666m-256 85.333334h170.666666V725.333333h-170.666666m256-170.666666h170.666666V725.333333h-170.666666m-256-426.666666h170.666666v170.666666h-170.666666m-256-170.666666h170.666666v170.666666H170.666667m0-426.666666h170.666666v170.666666H170.666667m256-170.666666h170.666666v170.666666h-170.666666M170.666667 554.666667h170.666666V725.333333H170.666667v-170.666666z"  horiz-adv-x="1024" />

    
    <glyph glyph-name="home" unicode="&#59548;" d="M426.666667 42.666667V298.666667h170.666666v-256h213.333334V384h128L512 768 85.333333 384h128v-341.333333z"  horiz-adv-x="1024" />

    
    <glyph glyph-name="devices" unicode="&#59780;" d="M170.666667 640h768V725.333333H170.666667c-47.146667 0-85.333333-38.186667-85.333334-85.333333v-469.333333H0v-128h597.333333v128H170.666667V640z m810.666666-85.333333H725.333333c-23.466667 0-42.666667-19.2-42.666666-42.666667v-426.666667c0-23.466667 19.2-42.666667 42.666666-42.666666h256c23.466667 0 42.666667 19.2 42.666667 42.666666V512c0 23.466667-19.2 42.666667-42.666667 42.666667z m-42.666666-384h-170.666667V469.333333h170.666667v-298.666666z"  horiz-adv-x="1024" />

    
    <glyph glyph-name="check" unicode="&#60434;" d="M384 206.08L206.08 384l-60.373333-60.373333L384 85.333333l512 512-60.373333 60.373334z"  horiz-adv-x="1024" />

    
    <glyph glyph-name="more-vertical-outlin" unicode="&#58894;" d="M512 384m-85.333333 0a85.333333 85.333333 0 1 1 170.666666 0 85.333333 85.333333 0 1 1-170.666666 0ZM512 682.666667m-85.333333 0a85.333333 85.333333 0 1 1 170.666666 0 85.333333 85.333333 0 1 1-170.666666 0ZM512 85.333333m-85.333333 0a85.333333 85.333333 0 1 1 170.666666 0 85.333333 85.333333 0 1 1-170.666666 0Z"  horiz-adv-x="1024" />

    
    <glyph glyph-name="search" unicode="&#59214;" d="M966.4-7.428571L669.6 289.371429C715.657143 348.914286 740.571429 421.714286 740.571429 498.285714c0 91.657143-35.771429 177.6-100.457143 242.4-64.685714 64.8-150.857143 100.457143-242.4 100.457143s-177.714286-35.771429-242.4-100.457143C90.514286 676 54.857143 589.942857 54.857143 498.285714c0-91.542857 35.771429-177.714286 100.457143-242.4C220 191.085714 306.057143 155.428571 397.714286 155.428571c76.571429 0 149.257143 24.914286 208.8 70.857143l296.8-296.685714a9.371429 9.371429 0 0 1 13.257143 0l49.828571 49.714286a9.371429 9.371429 0 0 1 0 13.257143zM578.742857 317.257143C530.285714 268.914286 466.057143 242.285714 397.714286 242.285714s-132.571429 26.628571-181.028572 74.971429C168.342857 365.714286 141.714286 429.942857 141.714286 498.285714s26.628571 132.685714 74.971428 181.028572C265.142857 727.657143 329.371429 754.285714 397.714286 754.285714s132.685714-26.514286 181.028571-74.971428S653.714286 566.628571 653.714286 498.285714s-26.628571-132.685714-74.971429-181.028571z"  horiz-adv-x="1024" />

    
    <glyph glyph-name="baseline-expand_less-px" unicode="&#58902;" d="M512 554.666667l-256-256 60.16-60.16L512 433.92l195.84-195.413333L768 298.666667z"  horiz-adv-x="1024" />

    
    <glyph glyph-name="Bookmarks" unicode="&#59002;" d="M682.67008-25.6V622.92992a34.26304 34.26304 0 0 1-34.14016 34.12992h-409.6A34.26304 34.26304 0 0 1 204.8 622.92992V-25.6l238.92992 136.52992L682.67008-25.6zM785.07008 793.6h-409.6a34.27328 34.27328 0 0 1-34.14016-34.14016v-51.2h307.2c47.07328 0 85.34016-38.25664 85.34016-85.32992v-463.22688L819.2 110.92992V759.45984A34.26304 34.26304 0 0 1 785.07008 793.6z"  horiz-adv-x="1024" />

    


  </font>
</defs>
</svg>
